<mxfile host="app.diagrams.net" agent="Mozilla/5.0 (Windows NT 10.0; Win64; x64) AppleWebKit/537.36 (KHTML, like Gecko) Chrome/134.0.0.0 Safari/537.36" version="26.2.2">
  <diagram name="Page-1" id="4HGAeG6B8Hf629lZWa2V">
    <mxGraphModel dx="1126" dy="607" grid="1" gridSize="10" guides="1" tooltips="1" connect="1" arrows="1" fold="1" page="1" pageScale="1" pageWidth="850" pageHeight="1100" math="0" shadow="0">
      <root>
        <mxCell id="0" />
        <mxCell id="1" parent="0" />
        <mxCell id="4wtZPWTdxJL2j9UXeKSV-1" value="App" style="swimlane;fontStyle=1;align=center;verticalAlign=top;childLayout=stackLayout;horizontal=1;startSize=32;horizontalStack=0;resizeParent=1;resizeParentMax=0;resizeLast=0;collapsible=0;marginBottom=0;" vertex="1" parent="1">
          <mxGeometry x="401" y="409" width="629" height="496" as="geometry" />
        </mxCell>
        <mxCell id="4wtZPWTdxJL2j9UXeKSV-2" value="~static SIGNATURE_LENGTH_MAP" style="text;strokeColor=none;fillColor=none;align=left;verticalAlign=top;spacingLeft=4;spacingRight=4;overflow=hidden;rotatable=0;points=[[0,0.5],[1,0.5]];portConstraint=eastwest;" vertex="1" parent="4wtZPWTdxJL2j9UXeKSV-1">
          <mxGeometry y="32" width="629" height="32" as="geometry" />
        </mxCell>
        <mxCell id="4wtZPWTdxJL2j9UXeKSV-3" value="~static PK_BYTES_MAP" style="text;strokeColor=none;fillColor=none;align=left;verticalAlign=top;spacingLeft=4;spacingRight=4;overflow=hidden;rotatable=0;points=[[0,0.5],[1,0.5]];portConstraint=eastwest;" vertex="1" parent="4wtZPWTdxJL2j9UXeKSV-1">
          <mxGeometry y="64" width="629" height="36" as="geometry" />
        </mxCell>
        <mxCell id="4wtZPWTdxJL2j9UXeKSV-34" value="~static CONTEXT" style="text;strokeColor=none;fillColor=none;align=left;verticalAlign=top;spacingLeft=4;spacingRight=4;overflow=hidden;rotatable=0;points=[[0,0.5],[1,0.5]];portConstraint=eastwest;" vertex="1" parent="4wtZPWTdxJL2j9UXeKSV-1">
          <mxGeometry y="100" width="629" height="36" as="geometry" />
        </mxCell>
        <mxCell id="4wtZPWTdxJL2j9UXeKSV-4" style="line;strokeWidth=1;fillColor=none;align=left;verticalAlign=middle;spacingTop=-1;spacingLeft=3;spacingRight=3;rotatable=0;labelPosition=right;points=[];portConstraint=eastwest;strokeColor=inherit;" vertex="1" parent="4wtZPWTdxJL2j9UXeKSV-1">
          <mxGeometry y="136" width="629" height="8" as="geometry" />
        </mxCell>
        <mxCell id="4wtZPWTdxJL2j9UXeKSV-5" value="+main(String[] args)" style="text;strokeColor=none;fillColor=none;align=left;verticalAlign=top;spacingLeft=4;spacingRight=4;overflow=hidden;rotatable=0;points=[[0,0.5],[1,0.5]];portConstraint=eastwest;" vertex="1" parent="4wtZPWTdxJL2j9UXeKSV-1">
          <mxGeometry y="144" width="629" height="32" as="geometry" />
        </mxCell>
        <mxCell id="4wtZPWTdxJL2j9UXeKSV-36" value="~selectParameterSet(String[] args)" style="text;strokeColor=none;fillColor=none;align=left;verticalAlign=top;spacingLeft=4;spacingRight=4;overflow=hidden;rotatable=0;points=[[0,0.5],[1,0.5]];portConstraint=eastwest;" vertex="1" parent="4wtZPWTdxJL2j9UXeKSV-1">
          <mxGeometry y="176" width="629" height="32" as="geometry" />
        </mxCell>
        <mxCell id="4wtZPWTdxJL2j9UXeKSV-6" value="~generateKeyPair(SLHDSAParameters) : : AsymmetricCipherKeyPair" style="text;strokeColor=none;fillColor=none;align=left;verticalAlign=top;spacingLeft=4;spacingRight=4;overflow=hidden;rotatable=0;points=[[0,0.5],[1,0.5]];portConstraint=eastwest;" vertex="1" parent="4wtZPWTdxJL2j9UXeKSV-1">
          <mxGeometry y="208" width="629" height="32" as="geometry" />
        </mxCell>
        <mxCell id="4wtZPWTdxJL2j9UXeKSV-7" value="~signMessage(CipherParameters, String, SLHDSAParameters) : : byte[]" style="text;strokeColor=none;fillColor=none;align=left;verticalAlign=top;spacingLeft=4;spacingRight=4;overflow=hidden;rotatable=0;points=[[0,0.5],[1,0.5]];portConstraint=eastwest;" vertex="1" parent="4wtZPWTdxJL2j9UXeKSV-1">
          <mxGeometry y="240" width="629" height="32" as="geometry" />
        </mxCell>
        <mxCell id="4wtZPWTdxJL2j9UXeKSV-8" value="~verifySignature(CipherParameters, byte[], String, SLHDSAParameters) : : boolean" style="text;strokeColor=none;fillColor=none;align=left;verticalAlign=top;spacingLeft=4;spacingRight=4;overflow=hidden;rotatable=0;points=[[0,0.5],[1,0.5]];portConstraint=eastwest;" vertex="1" parent="4wtZPWTdxJL2j9UXeKSV-1">
          <mxGeometry y="272" width="629" height="32" as="geometry" />
        </mxCell>
        <mxCell id="4wtZPWTdxJL2j9UXeKSV-9" value="~prepareMessageForPureSigning(String, SLHDSAParameters) : : byte[]" style="text;strokeColor=none;fillColor=none;align=left;verticalAlign=top;spacingLeft=4;spacingRight=4;overflow=hidden;rotatable=0;points=[[0,0.5],[1,0.5]];portConstraint=eastwest;" vertex="1" parent="4wtZPWTdxJL2j9UXeKSV-1">
          <mxGeometry y="304" width="629" height="32" as="geometry" />
        </mxCell>
        <mxCell id="4wtZPWTdxJL2j9UXeKSV-37" value="~validateSignatureLength()" style="text;strokeColor=none;fillColor=none;align=left;verticalAlign=top;spacingLeft=4;spacingRight=4;overflow=hidden;rotatable=0;points=[[0,0.5],[1,0.5]];portConstraint=eastwest;" vertex="1" parent="4wtZPWTdxJL2j9UXeKSV-1">
          <mxGeometry y="336" width="629" height="32" as="geometry" />
        </mxCell>
        <mxCell id="4wtZPWTdxJL2j9UXeKSV-38" value="~validateParameterSetStrength()" style="text;strokeColor=none;fillColor=none;align=left;verticalAlign=top;spacingLeft=4;spacingRight=4;overflow=hidden;rotatable=0;points=[[0,0.5],[1,0.5]];portConstraint=eastwest;" vertex="1" parent="4wtZPWTdxJL2j9UXeKSV-1">
          <mxGeometry y="368" width="629" height="32" as="geometry" />
        </mxCell>
        <mxCell id="4wtZPWTdxJL2j9UXeKSV-39" value="-getSecurityStrength()" style="text;strokeColor=none;fillColor=none;align=left;verticalAlign=top;spacingLeft=4;spacingRight=4;overflow=hidden;rotatable=0;points=[[0,0.5],[1,0.5]];portConstraint=eastwest;" vertex="1" parent="4wtZPWTdxJL2j9UXeKSV-1">
          <mxGeometry y="400" width="629" height="32" as="geometry" />
        </mxCell>
        <mxCell id="4wtZPWTdxJL2j9UXeKSV-40" value="-handleError()" style="text;strokeColor=none;fillColor=none;align=left;verticalAlign=top;spacingLeft=4;spacingRight=4;overflow=hidden;rotatable=0;points=[[0,0.5],[1,0.5]];portConstraint=eastwest;" vertex="1" parent="4wtZPWTdxJL2j9UXeKSV-1">
          <mxGeometry y="432" width="629" height="32" as="geometry" />
        </mxCell>
        <mxCell id="4wtZPWTdxJL2j9UXeKSV-41" value="-generateRandomContext()" style="text;strokeColor=none;fillColor=none;align=left;verticalAlign=top;spacingLeft=4;spacingRight=4;overflow=hidden;rotatable=0;points=[[0,0.5],[1,0.5]];portConstraint=eastwest;" vertex="1" parent="4wtZPWTdxJL2j9UXeKSV-1">
          <mxGeometry y="464" width="629" height="32" as="geometry" />
        </mxCell>
        <mxCell id="4wtZPWTdxJL2j9UXeKSV-10" value="AppBenchmarks" style="swimlane;fontStyle=1;align=center;verticalAlign=top;childLayout=stackLayout;horizontal=1;startSize=34;horizontalStack=0;resizeParent=1;resizeParentMax=0;resizeLast=0;collapsible=0;marginBottom=0;" vertex="1" parent="1">
          <mxGeometry x="20" y="56" width="402" height="219" as="geometry" />
        </mxCell>
        <mxCell id="4wtZPWTdxJL2j9UXeKSV-49" value="-static TEST_MESSAGE" style="text;strokeColor=none;fillColor=none;align=left;verticalAlign=top;spacingLeft=4;spacingRight=4;overflow=hidden;rotatable=0;points=[[0,0.5],[1,0.5]];portConstraint=eastwest;" vertex="1" parent="4wtZPWTdxJL2j9UXeKSV-10">
          <mxGeometry y="34" width="402" height="37" as="geometry" />
        </mxCell>
        <mxCell id="4wtZPWTdxJL2j9UXeKSV-50" value="-static PARAMETER_SET" style="text;strokeColor=none;fillColor=none;align=left;verticalAlign=top;spacingLeft=4;spacingRight=4;overflow=hidden;rotatable=0;points=[[0,0.5],[1,0.5]];portConstraint=eastwest;" vertex="1" parent="4wtZPWTdxJL2j9UXeKSV-10">
          <mxGeometry y="71" width="402" height="37" as="geometry" />
        </mxCell>
        <mxCell id="4wtZPWTdxJL2j9UXeKSV-12" value="+benchmarkKeyGeneration(Blackhole)" style="text;strokeColor=none;fillColor=none;align=left;verticalAlign=top;spacingLeft=4;spacingRight=4;overflow=hidden;rotatable=0;points=[[0,0.5],[1,0.5]];portConstraint=eastwest;" vertex="1" parent="4wtZPWTdxJL2j9UXeKSV-10">
          <mxGeometry y="108" width="402" height="37" as="geometry" />
        </mxCell>
        <mxCell id="4wtZPWTdxJL2j9UXeKSV-13" value="+benchmarkSignatureGeneration(Blackhole)" style="text;strokeColor=none;fillColor=none;align=left;verticalAlign=top;spacingLeft=4;spacingRight=4;overflow=hidden;rotatable=0;points=[[0,0.5],[1,0.5]];portConstraint=eastwest;" vertex="1" parent="4wtZPWTdxJL2j9UXeKSV-10">
          <mxGeometry y="145" width="402" height="37" as="geometry" />
        </mxCell>
        <mxCell id="4wtZPWTdxJL2j9UXeKSV-14" value="+benchmarkSignatureVerification(Blackhole)" style="text;strokeColor=none;fillColor=none;align=left;verticalAlign=top;spacingLeft=4;spacingRight=4;overflow=hidden;rotatable=0;points=[[0,0.5],[1,0.5]];portConstraint=eastwest;" vertex="1" parent="4wtZPWTdxJL2j9UXeKSV-10">
          <mxGeometry y="182" width="402" height="37" as="geometry" />
        </mxCell>
        <mxCell id="4wtZPWTdxJL2j9UXeKSV-52" value="" style="endArrow=none;html=1;rounded=0;exitX=0.999;exitY=0.793;exitDx=0;exitDy=0;entryX=-0.001;entryY=0.844;entryDx=0;entryDy=0;exitPerimeter=0;entryPerimeter=0;" edge="1" parent="4wtZPWTdxJL2j9UXeKSV-10" source="4wtZPWTdxJL2j9UXeKSV-50" target="4wtZPWTdxJL2j9UXeKSV-50">
          <mxGeometry width="50" height="50" relative="1" as="geometry">
            <mxPoint x="410" y="134" as="sourcePoint" />
            <mxPoint x="379.99999999999955" y="134" as="targetPoint" />
          </mxGeometry>
        </mxCell>
        <mxCell id="4wtZPWTdxJL2j9UXeKSV-15" value="AppFuzzTests" style="swimlane;fontStyle=1;align=center;verticalAlign=top;childLayout=stackLayout;horizontal=1;startSize=32.92307692307692;horizontalStack=0;resizeParent=1;resizeParentMax=0;resizeLast=0;collapsible=0;marginBottom=0;" vertex="1" parent="1">
          <mxGeometry x="472" y="32" width="486" height="296.9230769230769" as="geometry" />
        </mxCell>
        <mxCell id="4wtZPWTdxJL2j9UXeKSV-53" value="-static PARAMETER_SETS" style="text;strokeColor=none;fillColor=none;align=left;verticalAlign=top;spacingLeft=4;spacingRight=4;overflow=hidden;rotatable=0;points=[[0,0.5],[1,0.5]];portConstraint=eastwest;" vertex="1" parent="4wtZPWTdxJL2j9UXeKSV-15">
          <mxGeometry y="32.92307692307692" width="486" height="33" as="geometry" />
        </mxCell>
        <mxCell id="4wtZPWTdxJL2j9UXeKSV-58" value="-static MAX_SIGNATURE_LENGTH" style="text;strokeColor=none;fillColor=none;align=left;verticalAlign=top;spacingLeft=4;spacingRight=4;overflow=hidden;rotatable=0;points=[[0,0.5],[1,0.5]];portConstraint=eastwest;" vertex="1" parent="4wtZPWTdxJL2j9UXeKSV-15">
          <mxGeometry y="65.92307692307692" width="486" height="33" as="geometry" />
        </mxCell>
        <mxCell id="4wtZPWTdxJL2j9UXeKSV-59" style="text;strokeColor=none;fillColor=none;align=left;verticalAlign=top;spacingLeft=4;spacingRight=4;overflow=hidden;rotatable=0;points=[[0,0.5],[1,0.5]];portConstraint=eastwest;" vertex="1" parent="4wtZPWTdxJL2j9UXeKSV-15">
          <mxGeometry y="98.92307692307692" width="486" height="33" as="geometry" />
        </mxCell>
        <mxCell id="4wtZPWTdxJL2j9UXeKSV-17" value="+fuzzAppWorkflow(FuzzedDataProvider)" style="text;strokeColor=none;fillColor=none;align=left;verticalAlign=top;spacingLeft=4;spacingRight=4;overflow=hidden;rotatable=0;points=[[0,0.5],[1,0.5]];portConstraint=eastwest;" vertex="1" parent="4wtZPWTdxJL2j9UXeKSV-15">
          <mxGeometry y="131.9230769230769" width="486" height="33" as="geometry" />
        </mxCell>
        <mxCell id="4wtZPWTdxJL2j9UXeKSV-18" value="+fuzzPrepareMessageForPureSigning(FuzzedDataProvider)" style="text;strokeColor=none;fillColor=none;align=left;verticalAlign=top;spacingLeft=4;spacingRight=4;overflow=hidden;rotatable=0;points=[[0,0.5],[1,0.5]];portConstraint=eastwest;" vertex="1" parent="4wtZPWTdxJL2j9UXeKSV-15">
          <mxGeometry y="164.9230769230769" width="486" height="33" as="geometry" />
        </mxCell>
        <mxCell id="4wtZPWTdxJL2j9UXeKSV-19" value="+fuzzValidateSignatureLength(FuzzedDataProvider)" style="text;strokeColor=none;fillColor=none;align=left;verticalAlign=top;spacingLeft=4;spacingRight=4;overflow=hidden;rotatable=0;points=[[0,0.5],[1,0.5]];portConstraint=eastwest;" vertex="1" parent="4wtZPWTdxJL2j9UXeKSV-15">
          <mxGeometry y="197.9230769230769" width="486" height="33" as="geometry" />
        </mxCell>
        <mxCell id="4wtZPWTdxJL2j9UXeKSV-20" value="+fuzzValidateParameterSetStrength(FuzzedDataProvider)" style="text;strokeColor=none;fillColor=none;align=left;verticalAlign=top;spacingLeft=4;spacingRight=4;overflow=hidden;rotatable=0;points=[[0,0.5],[1,0.5]];portConstraint=eastwest;" vertex="1" parent="4wtZPWTdxJL2j9UXeKSV-15">
          <mxGeometry y="230.9230769230769" width="486" height="33" as="geometry" />
        </mxCell>
        <mxCell id="4wtZPWTdxJL2j9UXeKSV-21" value="+fuzzContextHandling(FuzzedDataProvider)" style="text;strokeColor=none;fillColor=none;align=left;verticalAlign=top;spacingLeft=4;spacingRight=4;overflow=hidden;rotatable=0;points=[[0,0.5],[1,0.5]];portConstraint=eastwest;" vertex="1" parent="4wtZPWTdxJL2j9UXeKSV-15">
          <mxGeometry y="263.9230769230769" width="486" height="33" as="geometry" />
        </mxCell>
        <mxCell id="4wtZPWTdxJL2j9UXeKSV-55" value="" style="endArrow=none;html=1;rounded=0;entryX=0;entryY=0.5;entryDx=0;entryDy=0;exitX=1;exitY=0.5;exitDx=0;exitDy=0;" edge="1" parent="4wtZPWTdxJL2j9UXeKSV-15" source="4wtZPWTdxJL2j9UXeKSV-59" target="4wtZPWTdxJL2j9UXeKSV-59">
          <mxGeometry width="50" height="50" relative="1" as="geometry">
            <mxPoint x="486" y="82.4230769230769" as="sourcePoint" />
            <mxPoint y="82.4230769230769" as="targetPoint" />
            <Array as="points" />
          </mxGeometry>
        </mxCell>
        <mxCell id="4wtZPWTdxJL2j9UXeKSV-22" value="AppTests" style="swimlane;fontStyle=1;align=center;verticalAlign=top;childLayout=stackLayout;horizontal=1;startSize=31.733333333333334;horizontalStack=0;resizeParent=1;resizeParentMax=0;resizeLast=0;collapsible=0;marginBottom=0;" vertex="1" parent="1">
          <mxGeometry x="1009" y="20" width="372" height="223.73333333333335" as="geometry" />
        </mxCell>
        <mxCell id="4wtZPWTdxJL2j9UXeKSV-24" value="~testParameterSets(SLHDSAParameters)" style="text;strokeColor=none;fillColor=none;align=left;verticalAlign=top;spacingLeft=4;spacingRight=4;overflow=hidden;rotatable=0;points=[[0,0.5],[1,0.5]];portConstraint=eastwest;" vertex="1" parent="4wtZPWTdxJL2j9UXeKSV-22">
          <mxGeometry y="31.733333333333334" width="372" height="32" as="geometry" />
        </mxCell>
        <mxCell id="4wtZPWTdxJL2j9UXeKSV-25" value="~testKeyPairGeneration(SLHDSAParameters)" style="text;strokeColor=none;fillColor=none;align=left;verticalAlign=top;spacingLeft=4;spacingRight=4;overflow=hidden;rotatable=0;points=[[0,0.5],[1,0.5]];portConstraint=eastwest;" vertex="1" parent="4wtZPWTdxJL2j9UXeKSV-22">
          <mxGeometry y="63.733333333333334" width="372" height="32" as="geometry" />
        </mxCell>
        <mxCell id="4wtZPWTdxJL2j9UXeKSV-26" value="~testSignAndVerify(SLHDSAParameters)" style="text;strokeColor=none;fillColor=none;align=left;verticalAlign=top;spacingLeft=4;spacingRight=4;overflow=hidden;rotatable=0;points=[[0,0.5],[1,0.5]];portConstraint=eastwest;" vertex="1" parent="4wtZPWTdxJL2j9UXeKSV-22">
          <mxGeometry y="95.73333333333333" width="372" height="32" as="geometry" />
        </mxCell>
        <mxCell id="4wtZPWTdxJL2j9UXeKSV-27" value="~testPrepareMessageForPureSigning()" style="text;strokeColor=none;fillColor=none;align=left;verticalAlign=top;spacingLeft=4;spacingRight=4;overflow=hidden;rotatable=0;points=[[0,0.5],[1,0.5]];portConstraint=eastwest;" vertex="1" parent="4wtZPWTdxJL2j9UXeKSV-22">
          <mxGeometry y="127.73333333333333" width="372" height="32" as="geometry" />
        </mxCell>
        <mxCell id="4wtZPWTdxJL2j9UXeKSV-28" value="~testPrivateKeyDestruction()" style="text;strokeColor=none;fillColor=none;align=left;verticalAlign=top;spacingLeft=4;spacingRight=4;overflow=hidden;rotatable=0;points=[[0,0.5],[1,0.5]];portConstraint=eastwest;" vertex="1" parent="4wtZPWTdxJL2j9UXeKSV-22">
          <mxGeometry y="159.73333333333335" width="372" height="32" as="geometry" />
        </mxCell>
        <mxCell id="4wtZPWTdxJL2j9UXeKSV-29" value="~testInvalidParameterSetHandling()" style="text;strokeColor=none;fillColor=none;align=left;verticalAlign=top;spacingLeft=4;spacingRight=4;overflow=hidden;rotatable=0;points=[[0,0.5],[1,0.5]];portConstraint=eastwest;" vertex="1" parent="4wtZPWTdxJL2j9UXeKSV-22">
          <mxGeometry y="191.73333333333335" width="372" height="32" as="geometry" />
        </mxCell>
        <mxCell id="4wtZPWTdxJL2j9UXeKSV-30" value="uses generateKeyPair(), signMessage(), verifySignature()" style="curved=1;startArrow=none;endArrow=open;endSize=12;exitX=0.5;exitY=1;entryX=0;entryY=0.01;rounded=0;" edge="1" parent="1" source="4wtZPWTdxJL2j9UXeKSV-10" target="4wtZPWTdxJL2j9UXeKSV-1">
          <mxGeometry x="-0.6517" relative="1" as="geometry">
            <Array as="points">
              <mxPoint x="221" y="338" />
            </Array>
            <mxPoint y="1" as="offset" />
          </mxGeometry>
        </mxCell>
        <mxCell id="4wtZPWTdxJL2j9UXeKSV-31" value="uses generateKeyPair(), signMessage(), verifySignature(), prepareMessageForPureSigning(), validateSignatureLength(), validateParameterSetStrength()" style="curved=1;startArrow=none;endArrow=open;endSize=12;exitX=0.5;exitY=1;entryX=0.5;entryY=0;rounded=0;" edge="1" parent="1" source="4wtZPWTdxJL2j9UXeKSV-15" target="4wtZPWTdxJL2j9UXeKSV-1">
          <mxGeometry x="-0.001" relative="1" as="geometry">
            <Array as="points" />
            <mxPoint as="offset" />
          </mxGeometry>
        </mxCell>
        <mxCell id="4wtZPWTdxJL2j9UXeKSV-32" value="uses generateKeyPair(), signMessage(), verifySignature(), prepareMessageForPureSigning(), selectParameterSet()" style="curved=1;startArrow=none;endArrow=open;endSize=12;exitX=0.5;exitY=1;entryX=0.99;entryY=0;rounded=0;" edge="1" parent="1" source="4wtZPWTdxJL2j9UXeKSV-22" target="4wtZPWTdxJL2j9UXeKSV-1">
          <mxGeometry x="-0.7407" y="-5" relative="1" as="geometry">
            <Array as="points">
              <mxPoint x="1195" y="338" />
            </Array>
            <mxPoint y="1" as="offset" />
          </mxGeometry>
        </mxCell>
      </root>
    </mxGraphModel>
  </diagram>
</mxfile>